<svg xmlns="http://www.w3.org/2000/svg" viewBox="0 0 64 80" x="0px" y="0px"><title>36 pen lamp creative copywriting write</title><path d="M38.31,18.62l1.3.75a1,1,0,0,0,1-1.73l-1.3-.75a1,1,0,0,0-1,1.73Z"/><path d="M26.77,11a1,1,0,1,0-1,1.73l3.15,1.82a1,1,0,0,0,1-1.73Z"/><path d="M47.85,23.72a1,1,0,1,0-1,1.73L50,27.27a1,1,0,1,0,1-1.73Z"/><path d="M53.54,14.7A1,1,0,0,0,52.32,14L48.7,15a1,1,0,1,0,.52,1.93l3.62-1A1,1,0,0,0,53.54,14.7Z"/><path d="M44.67,5.37,42.85,8.52a1,1,0,0,0,1.73,1L46.4,6.37a1,1,0,1,0-1.73-1Z"/><path d="M34,3.4a1,1,0,0,0-.71,1.22l1,3.62a1,1,0,0,0,1.93-.52l-1-3.62A1,1,0,0,0,34,3.4Z"/><path d="M47,58H19.31l7.47-4.35a1,1,0,0,0,.37-.38L41.37,27.56a1,1,0,0,0,.11-.35A8.17,8.17,0,1,0,30.7,20.93a1,1,0,0,0-.31.32L15.31,47.45a1,1,0,0,0-.13.49L15.06,58H5a1,1,0,0,0,0,2H47a1,1,0,0,0,0-2ZM33.4,16.45a6.16,6.16,0,1,1,7.36,8.9,1,1,0,0,0-.51.43l-.73-.42h0l3.77-3.9a1,1,0,0,0,.25-.55,1,1,0,0,0,.24-.27,1,1,0,0,0-.37-1.37l-.87-.5a1,1,0,0,0-1.06,1.68L38.1,24a1,1,0,0,0-.23.45L35,22.72a1,1,0,0,0,.27-.43l1.35-4.72a1,1,0,0,0,.79-1.82l-.87-.5a1,1,0,0,0-1.37.37,1,1,0,0,0-.12.52,1,1,0,0,0-.23.39L33.3,21.74s0,0,0,0l-.58-.33a1,1,0,0,0,0-.48A6.14,6.14,0,0,1,33.4,16.45Zm-1.77,6.67,7.52,4.34-1.83,3.3L29.79,26.3ZM17.18,48.23,28.79,28l7.56,4.47L25.54,52.06,17.07,57Z"/><path d="M59,58H52a1,1,0,0,0,0,2h7a1,1,0,0,0,0-2Z"/><path d="M32.43,51a1,1,0,1,0,0,2h9.13a1,1,0,0,0,0-2Z"/><path d="M50,39H42a1,1,0,0,0,0,2h8a1,1,0,0,0,0-2Z"/><path d="M47,46a1,1,0,0,0-1-1H38a1,1,0,0,0,0,2h8A1,1,0,0,0,47,46Z"/><text x="0" y="79" fill="#000000" font-size="5px" font-weight="bold" font-family="'Helvetica Neue', Helvetica, Arial-Unicode, Arial, Sans-serif">Created by Andi Nur Abdillah</text><text x="0" y="84" fill="#000000" font-size="5px" font-weight="bold" font-family="'Helvetica Neue', Helvetica, Arial-Unicode, Arial, Sans-serif">from the Noun Project</text></svg>