<svg xmlns="http://www.w3.org/2000/svg" viewBox="0 0 100 125" x="0px" y="0px"><path d="M83.3,33.33l-.5.06.5-.07h0A2.29,2.29,0,0,0,82.66,32L61.85,11.16a2.24,2.24,0,0,0-.38-.31l-.1-.06a3.41,3.41,0,0,0-.33-.17l-.18-.06a2.46,2.46,0,0,0-.29-.09,2.63,2.63,0,0,0-.49-.05H26.68a2.51,2.51,0,0,0-2.5,2.5V39.77a2.5,2.5,0,0,0,5,0V15.42h28.4V33.56a2.5,2.5,0,0,0,2.49,2.5l18.26.1V84.58H29.18V80.7a2.5,2.5,0,0,0-5,0v6.38a2.51,2.51,0,0,0,2.5,2.5H80.83a2.51,2.51,0,0,0,2.5-2.5V33.68A2.07,2.07,0,0,0,83.3,33.33ZM62.58,31.08V19L74.76,31.14Z"/><path d="M44.63,55.69a2.15,2.15,0,0,0-2.1,1.05,8.22,8.22,0,0,0-.59,3.61,7.76,7.76,0,0,0,.58,3.52h0a2.18,2.18,0,0,0,2.11,1,2.21,2.21,0,0,0,2.12-1,7.76,7.76,0,0,0,.58-3.52,8.22,8.22,0,0,0-.59-3.61A2.16,2.16,0,0,0,44.63,55.69Z"/><path d="M69.66,45.27H19.17a2.51,2.51,0,0,0-2.5,2.5V72.7a2.5,2.5,0,0,0,2.5,2.5H69.66a2.5,2.5,0,0,0,2.5-2.5V47.77A2.51,2.51,0,0,0,69.66,45.27ZM36,66.49a5.35,5.35,0,0,1-3.59,1.17,19.65,19.65,0,0,1-4-.5L27.53,67l.33-2.53.17,0a33.09,33.09,0,0,0,4.18.37c1.35,0,2-.53,2-1.63a1,1,0,0,0-.43-.88,6.76,6.76,0,0,0-2-.78,8.28,8.28,0,0,1-3.42-1.65,3.59,3.59,0,0,1-1-2.72,3.94,3.94,0,0,1,1.34-3.25,5.62,5.62,0,0,1,3.59-1.06,23.82,23.82,0,0,1,3.89.41l.9.17L36.84,56l-.18,0c-1.91-.21-3.28-.32-4.06-.32-2.06,0-2.06,1-2.06,1.3a.94.94,0,0,0,.47.85,14,14,0,0,0,2.56,1,7.36,7.36,0,0,1,2.93,1.53A3.69,3.69,0,0,1,37.37,63,4.26,4.26,0,0,1,36,66.49ZM50.22,69.3l-2.91,1.36-1.86-3a5.9,5.9,0,0,1-.82,0c-2.18,0-3.73-.6-4.63-1.79a9.4,9.4,0,0,1-1.32-5.53A9.66,9.66,0,0,1,40,54.74c.9-1.24,2.46-1.86,4.62-1.86s3.73.62,4.62,1.86a9.59,9.59,0,0,1,1.34,5.61c0,3-.7,5.06-2.09,6.17Zm10.72-1.89H52.66V53.12h3.18V64.56h5.1Z"/><text x="0" y="115" fill="#000000" font-size="5px" font-weight="bold" font-family="'Helvetica Neue', Helvetica, Arial-Unicode, Arial, Sans-serif">Created by Jo</text><text x="0" y="120" fill="#000000" font-size="5px" font-weight="bold" font-family="'Helvetica Neue', Helvetica, Arial-Unicode, Arial, Sans-serif">from the Noun Project</text></svg>